{"title":"The Recruit - S02E06","uid":15647157,"size":453761654,"categoryP":"video","categoryS":"tv_shows","magnet":"?xt=urn:btih:787fb509833a91dcc8ff49540a10fb50b5be958a&amp;dn=The+Recruit+-+S02E06&amp;tr=udp%3A%2F%2Ftracker.leechers-paradise.org%3A6969&amp;tr=udp%3A%2F%2Fzer0day.ch%3A1337&amp;tr=udp%3A%2F%2Fopen.demonii.com%3A1337&amp;tr=udp%3A%2F%2Ftracker.coppersurfer.tk%3A6969&amp;tr=udp%3A%2F%2Fexodus.desync.com%3A6969","seeders":6,"leechers":2,"uploader":"Bullrout","files":1,"time":1472061667,"description":"The Recruit - S02E06\r\n\r\nDedication is put to the test, as eight remain in the running for their dream prize: a contract with an AFL club. After a tough training session at the home of the Western Bulldogs, the recruits are shocked by an early morning wake-up from Barry Hall. All fly to Newcastle to compete in the Captain's Raw Challenge, and the winner runs the recruits out for a battle on the SCG against the Sydney Swans Academy. It's a strategic de-list but things don't go to everyone's plan and a favourite says goodbye.\r\n\r\n\r\nComplete name                            : The Recruit - S02E06.mp4\r\nFormat                                   : MPEG-4\r\nFormat profile                           : Base Media / Version 2\r\nCodec ID                                 : mp42 (mp42/isom/avc1)\r\nFile size                                : 433 MiB\r\nDuration                                 : 54mn 19s\r\nOverall bit rate mode                    : Variable\r\nOverall bit rate                         : 1 114 Kbps\r\n\r\nVideo\r\nID                                       : 2\r\nFormat                                   : AVC\r\nFormat/Info                              : Advanced Video Codec\r\nFormat profile                           :   \r\nFormat settings, CABAC                   : Yes\r\nFormat settings, ReFrames                : 3 frames\r\nCodec ID                                 : avc1\r\nCodec ID/Info                            : Advanced Video Coding\r\nDuration                                 : 54mn 19s\r\nBit rate mode                            : Variable\r\nBit rate                                 : 982 Kbps\r\nMaximum bit rate                         : 1 000 Kbps\r\nWidth                                    : 720 pixels\r\nHeight                                   : 404 pixels\r\nDisplay aspect ratio                     : 16:9\r\nOriginal display aspect ratio            : 16:9\r\nFrame rate mode                          : Constant\r\nFrame rate                               : 25.000 fps\r\nStandard                                 : PAL\r\nColor space                              : YUV\r\nChroma subsampling                       : 4:2:0\r\nBit depth                                : 8 bits\r\nScan type                                : Progressive\r\nBits/(Pixel*Frame)                       : 0.135\r\nStream size                              : 382 MiB (88%)\r\nWriting library                          : x264 core 112\r\nColor range                              : Limited\r\nColor primaries                          : BT.601 PAL\r\nTransfer characteristics                 : BT.470 System B, BT.470 System G\r\nMatrix coefficients                      : BT.601\r\n\r\nAudio\r\nID                                       : 1\r\nFormat                                   : AAC\r\nFormat/Info                              : Advanced Audio Codec\r\nFormat profile                           : LC\r\nCodec ID                                 : 40\r\nDuration                                 : 54mn 19s\r\nBit rate mode                            : Variable\r\nBit rate                                 : 128 Kbps\r\nMaximum bit rate                         : 576 Kbps\r\nChannel(s)                               : 2 channels\r\nChannel positions                        : Front: L R\r\nSampling rate                            : 48.0 KHz\r\nFrame rate                               : 46.875 fps (1024 spf)\r\nCompression mode                         : Lossy\r\nStream size                              : 49.7 MiB (11%)","torrent":{"xt":"urn:btih:787fb509833a91dcc8ff49540a10fb50b5be958a","amp;dn":"The+Recruit+-+S02E06","amp;tr":["udp%3A%2F%2Ftracker.leechers-paradise.org%3A6969","udp%3A%2F%2Fzer0day.ch%3A1337","udp%3A%2F%2Fopen.demonii.com%3A1337","udp%3A%2F%2Ftracker.coppersurfer.tk%3A6969","udp%3A%2F%2Fexodus.desync.com%3A6969"],"infoHash":"787fb509833a91dcc8ff49540a10fb50b5be958a","infoHashBuffer":{"type":"Buffer","data":[120,127,181,9,131,58,145,220,200,255,73,84,10,16,251,80,181,190,149,138]},"announce":[],"urlList":[]}}